<svg xmlns="http://www.w3.org/2000/svg" width="860" height="380" viewBox="0 0 860 380" role="img" aria-label="Lowest-covered single file, per cent">
<style>
  .bg{fill:#ffffff} .fg{fill:#1f2328} .mut{fill:#59636e} .grid{stroke:#d1d9e0}
  .seg{stroke:#ffffff;stroke-width:1}
  .val{paint-order:stroke;stroke:#ffffff;stroke-width:3px;stroke-linejoin:round}
  .s0{fill:#2a78d6}  .s1{fill:#eb6834}  .s2{fill:#1baf7a}  .s3{fill:#eda100}  .s4{fill:#e87ba4}  .s5{fill:#008300}  .s6{fill:#4a3aa7}  .s7{fill:#e34948}
  @media (prefers-color-scheme: dark){
    .bg{fill:#0d1117} .fg{fill:#e6edf3} .mut{fill:#9198a1} .grid{stroke:#30363d}
    .seg{stroke:#0d1117} .val{stroke:#0d1117} .s0{fill:#3987e5} .s1{fill:#d95926} .s2{fill:#199e70} .s3{fill:#c98500} .s4{fill:#d55181} .s5{fill:#008300} .s6{fill:#9085e9} .s7{fill:#e66767}}
  text{font-family:-apple-system,BlinkMacSystemFont,"Segoe UI",Helvetica,Arial,sans-serif}
</style>
<rect class="bg" width="860" height="380"/>
<text class="fg" x="20" y="26" font-size="16" font-weight="600">Lowest-covered single file, per cent</text>
<text class="mut" x="20" y="44" font-size="11">the number script/coverage gates on; 2026W31-W38 backfilled 2026-09-24, W30 predates the floor</text>
<line class="grid" x1="64" y1="324.0" x2="650.0" y2="324.0" stroke-width="1"/>
<text class="mut" x="56" y="327.0" font-size="10" text-anchor="end">0</text>
<line class="grid" x1="64" y1="257.5" x2="650.0" y2="257.5" stroke-width="1"/>
<text class="mut" x="56" y="260.5" font-size="10" text-anchor="end">25</text>
<line class="grid" x1="64" y1="191.0" x2="650.0" y2="191.0" stroke-width="1"/>
<text class="mut" x="56" y="194.0" font-size="10" text-anchor="end">50</text>
<line class="grid" x1="64" y1="124.5" x2="650.0" y2="124.5" stroke-width="1"/>
<text class="mut" x="56" y="127.5" font-size="10" text-anchor="end">75</text>
<line class="grid" x1="64" y1="58.0" x2="650.0" y2="58.0" stroke-width="1"/>
<text class="mut" x="56" y="61.0" font-size="10" text-anchor="end">100</text>
<line x1="64" y1="111.2" x2="650.0" y2="111.2" stroke="#D55E00" stroke-width="1.5" stroke-dasharray="5 4"/>
<text class="mut" x="656.0" y="114.2" font-size="10">floor 80</text>
<text class="mut" x="93.3" y="342" font-size="10" text-anchor="middle">2026W30</text>
<text class="mut" x="93.3" y="308.0" font-size="9" text-anchor="middle">not<tspan x="93.3" dy="10">measured</tspan><title>2026W30: not measured</title></text>
<path class="seg s0" d="M132.6,324.0 V106.4 Q132.6,102.4 136.6,102.4 H167.2 Q171.2,102.4 171.2,106.4 V324.0 Z"><title>2026W31, minimum per-file coverage: 83.3</title></path>
<text class="mut" x="151.9" y="342" font-size="10" text-anchor="middle">2026W31</text>
<text class="fg val" x="151.9" y="97.4" font-size="10" text-anchor="middle">83.3</text>
<path class="seg s0" d="M191.2,324.0 V103.8 Q191.2,99.8 195.2,99.8 H225.8 Q229.8,99.8 229.8,103.8 V324.0 Z"><title>2026W32, minimum per-file coverage: 84.3</title></path>
<text class="mut" x="210.5" y="342" font-size="10" text-anchor="middle">2026W32</text>
<text class="fg val" x="210.5" y="94.8" font-size="10" text-anchor="middle">84.3</text>
<path class="seg s0" d="M249.8,324.0 V112.3 Q249.8,108.3 253.8,108.3 H284.4 Q288.4,108.3 288.4,112.3 V324.0 Z"><title>2026W33, minimum per-file coverage: 81.1</title></path>
<text class="mut" x="269.1" y="342" font-size="10" text-anchor="middle">2026W33</text>
<text class="fg val" x="269.1" y="103.3" font-size="10" text-anchor="middle">81.1</text>
<path class="seg s0" d="M308.4,324.0 V112.0 Q308.4,108.0 312.4,108.0 H343.0 Q347.0,108.0 347.0,112.0 V324.0 Z"><title>2026W34, minimum per-file coverage: 81.2</title></path>
<text class="mut" x="327.7" y="342" font-size="10" text-anchor="middle">2026W34</text>
<text class="fg val" x="327.7" y="103.0" font-size="10" text-anchor="middle">81.2</text>
<path class="seg s0" d="M367.0,324.0 V112.0 Q367.0,108.0 371.0,108.0 H401.6 Q405.6,108.0 405.6,112.0 V324.0 Z"><title>2026W35, minimum per-file coverage: 81.2</title></path>
<text class="mut" x="386.3" y="342" font-size="10" text-anchor="middle">2026W35</text>
<text class="fg val" x="386.3" y="103.0" font-size="10" text-anchor="middle">81.2</text>
<path class="seg s0" d="M425.6,324.0 V103.0 Q425.6,99.0 429.6,99.0 H460.2 Q464.2,99.0 464.2,103.0 V324.0 Z"><title>2026W36, minimum per-file coverage: 84.6</title></path>
<text class="mut" x="444.9" y="342" font-size="10" text-anchor="middle">2026W36</text>
<text class="fg val" x="444.9" y="94.0" font-size="10" text-anchor="middle">84.6</text>
<path class="seg s0" d="M484.2,324.0 V104.6 Q484.2,100.6 488.2,100.6 H518.8 Q522.8,100.6 522.8,104.6 V324.0 Z"><title>2026W37, minimum per-file coverage: 84</title></path>
<text class="mut" x="503.5" y="342" font-size="10" text-anchor="middle">2026W37</text>
<text class="fg val" x="503.5" y="95.6" font-size="10" text-anchor="middle">84</text>
<path class="seg s0" d="M542.8,324.0 V104.6 Q542.8,100.6 546.8,100.6 H577.4 Q581.4,100.6 581.4,104.6 V324.0 Z"><title>2026W38, minimum per-file coverage: 84</title></path>
<text class="mut" x="562.1" y="342" font-size="10" text-anchor="middle">2026W38</text>
<text class="fg val" x="562.1" y="95.6" font-size="10" text-anchor="middle">84</text>
<path class="seg s0" d="M601.4,324.0 V104.6 Q601.4,100.6 605.4,100.6 H636.0 Q640.0,100.6 640.0,104.6 V324.0 Z"><title>2026W39, minimum per-file coverage: 84</title></path>
<text class="mut" x="620.7" y="342" font-size="10" text-anchor="middle">2026W39</text>
<text class="fg val" x="620.7" y="95.6" font-size="10" text-anchor="middle">84</text>
<rect class="s0" x="672" y="64" width="11" height="11" rx="2"/>
<text class="fg" y="74" font-size="11"><tspan x="689" dy="0">minimum per-file</tspan><tspan x="689" dy="13">coverage</tspan></text>
</svg>
