<svg xmlns="http://www.w3.org/2000/svg" width="860" height="380" viewBox="0 0 860 380" role="img" aria-label="The nine things that would kill nife">
<style>
  .bg{fill:#ffffff} .fg{fill:#1f2328} .mut{fill:#59636e} .grid{stroke:#d1d9e0}
  @media (prefers-color-scheme: dark){
    .bg{fill:#0d1117} .fg{fill:#e6edf3} .mut{fill:#9198a1} .grid{stroke:#30363d}}
  text{font-family:-apple-system,BlinkMacSystemFont,"Segoe UI",Helvetica,Arial,sans-serif}
</style>
<rect class="bg" width="860" height="380"/>
<text class="fg" x="20" y="26" font-size="16" font-weight="600">The nine things that would kill nife</text>
<text class="mut" x="20" y="44" font-size="11">design/fatal-risks.md; tested means an experiment has been run, not that it came back green</text>
<line class="grid" x1="64" y1="324.0" x2="650.0" y2="324.0" stroke-width="1"/>
<text class="mut" x="56" y="327.0" font-size="10" text-anchor="end">0</text>
<line class="grid" x1="64" y1="257.5" x2="650.0" y2="257.5" stroke-width="1"/>
<text class="mut" x="56" y="260.5" font-size="10" text-anchor="end">2.5</text>
<line class="grid" x1="64" y1="191.0" x2="650.0" y2="191.0" stroke-width="1"/>
<text class="mut" x="56" y="194.0" font-size="10" text-anchor="end">5</text>
<line class="grid" x1="64" y1="124.5" x2="650.0" y2="124.5" stroke-width="1"/>
<text class="mut" x="56" y="127.5" font-size="10" text-anchor="end">7.5</text>
<line class="grid" x1="64" y1="58.0" x2="650.0" y2="58.0" stroke-width="1"/>
<text class="mut" x="56" y="61.0" font-size="10" text-anchor="end">10</text>
<text class="mut" x="100.6" y="342" font-size="10" text-anchor="middle">2026W29</text>
<text class="mut" x="173.9" y="342" font-size="10" text-anchor="middle">2026W30</text>
<text class="mut" x="247.1" y="342" font-size="10" text-anchor="middle">2026W31</text>
<text class="mut" x="320.4" y="342" font-size="10" text-anchor="middle">2026W32</text>
<text class="mut" x="393.6" y="342" font-size="10" text-anchor="middle">2026W33</text>
<text class="mut" x="466.9" y="342" font-size="10" text-anchor="middle">2026W34</text>
<text class="mut" x="540.1" y="342" font-size="10" text-anchor="middle">2026W35</text>
<rect x="589.2" y="217.6" width="48.3" height="106.4" fill="#0072B2"/>
<rect x="589.2" y="84.6" width="48.3" height="133.0" fill="#E69F00"/>
<text class="mut" x="613.4" y="342" font-size="10" text-anchor="middle">2026W36</text>
<text class="fg" x="613.4" y="79.6" font-size="10" text-anchor="middle">9</text>
<rect x="672" y="64" width="11" height="11" fill="#0072B2"/>
<text class="fg" x="689" y="74" font-size="11">experiment run</text>
<rect x="672" y="83" width="11" height="11" fill="#E69F00"/>
<text class="fg" x="689" y="93" font-size="11">not yet tested</text>
</svg>
