<svg xmlns="http://www.w3.org/2000/svg" width="860" height="380" viewBox="0 0 860 380" role="img" aria-label="Milestones by status">
<style>
  .bg{fill:#ffffff} .fg{fill:#1f2328} .mut{fill:#59636e} .grid{stroke:#d1d9e0}
  @media (prefers-color-scheme: dark){
    .bg{fill:#0d1117} .fg{fill:#e6edf3} .mut{fill:#9198a1} .grid{stroke:#30363d}}
  text{font-family:-apple-system,BlinkMacSystemFont,"Segoe UI",Helvetica,Arial,sans-serif}
</style>
<rect class="bg" width="860" height="380"/>
<text class="fg" x="20" y="26" font-size="16" font-weight="600">Milestones by status</text>
<text class="mut" x="20" y="44" font-size="11">design/roadmap/README.md, one bar per ISO week</text>
<line class="grid" x1="64" y1="324.0" x2="650.0" y2="324.0" stroke-width="1"/>
<text class="mut" x="56" y="327.0" font-size="10" text-anchor="end">0</text>
<line class="grid" x1="64" y1="270.8" x2="650.0" y2="270.8" stroke-width="1"/>
<text class="mut" x="56" y="273.8" font-size="10" text-anchor="end">50</text>
<line class="grid" x1="64" y1="217.6" x2="650.0" y2="217.6" stroke-width="1"/>
<text class="mut" x="56" y="220.6" font-size="10" text-anchor="end">100</text>
<line class="grid" x1="64" y1="164.4" x2="650.0" y2="164.4" stroke-width="1"/>
<text class="mut" x="56" y="167.4" font-size="10" text-anchor="end">150</text>
<line class="grid" x1="64" y1="111.2" x2="650.0" y2="111.2" stroke-width="1"/>
<text class="mut" x="56" y="114.2" font-size="10" text-anchor="end">200</text>
<line class="grid" x1="64" y1="58.0" x2="650.0" y2="58.0" stroke-width="1"/>
<text class="mut" x="56" y="61.0" font-size="10" text-anchor="end">250</text>
<text class="mut" x="100.6" y="342" font-size="10" text-anchor="middle">202629</text>
<text class="mut" x="173.9" y="342" font-size="10" text-anchor="middle">202630</text>
<rect x="223.0" y="296.3" width="48.3" height="27.7" fill="#0072B2"/>
<rect x="223.0" y="286.8" width="48.3" height="9.6" fill="#E69F00"/>
<rect x="223.0" y="285.7" width="48.3" height="1.1" fill="#009E73"/>
<rect x="223.0" y="268.7" width="48.3" height="17.0" fill="#CC79A7"/>
<rect x="223.0" y="266.5" width="48.3" height="2.1" fill="#56B4E9"/>
<rect x="223.0" y="264.4" width="48.3" height="2.1" fill="#D55E00"/>
<text class="mut" x="247.1" y="342" font-size="10" text-anchor="middle">202631</text>
<text class="fg" x="247.1" y="259.4" font-size="10" text-anchor="middle">56</text>
<rect x="296.2" y="257.0" width="48.3" height="67.0" fill="#0072B2"/>
<rect x="296.2" y="246.3" width="48.3" height="10.6" fill="#E69F00"/>
<rect x="296.2" y="238.9" width="48.3" height="7.4" fill="#009E73"/>
<rect x="296.2" y="201.6" width="48.3" height="37.2" fill="#CC79A7"/>
<rect x="296.2" y="199.5" width="48.3" height="2.1" fill="#56B4E9"/>
<rect x="296.2" y="197.4" width="48.3" height="2.1" fill="#D55E00"/>
<text class="mut" x="320.4" y="342" font-size="10" text-anchor="middle">202632</text>
<text class="fg" x="320.4" y="192.4" font-size="10" text-anchor="middle">119</text>
<rect x="369.5" y="246.3" width="48.3" height="77.7" fill="#0072B2"/>
<rect x="369.5" y="231.4" width="48.3" height="14.9" fill="#E69F00"/>
<rect x="369.5" y="225.0" width="48.3" height="6.4" fill="#009E73"/>
<rect x="369.5" y="191.0" width="48.3" height="34.0" fill="#CC79A7"/>
<rect x="369.5" y="188.9" width="48.3" height="2.1" fill="#56B4E9"/>
<rect x="369.5" y="186.7" width="48.3" height="2.1" fill="#D55E00"/>
<text class="mut" x="393.6" y="342" font-size="10" text-anchor="middle">202633</text>
<text class="fg" x="393.6" y="181.7" font-size="10" text-anchor="middle">129</text>
<rect x="442.7" y="220.8" width="48.3" height="103.2" fill="#0072B2"/>
<rect x="442.7" y="202.7" width="48.3" height="18.1" fill="#E69F00"/>
<rect x="442.7" y="157.0" width="48.3" height="45.8" fill="#CC79A7"/>
<rect x="442.7" y="154.8" width="48.3" height="2.1" fill="#56B4E9"/>
<rect x="442.7" y="152.7" width="48.3" height="2.1" fill="#D55E00"/>
<text class="mut" x="466.9" y="342" font-size="10" text-anchor="middle">202634</text>
<text class="fg" x="466.9" y="147.7" font-size="10" text-anchor="middle">161</text>
<rect x="516.0" y="214.4" width="48.3" height="109.6" fill="#0072B2"/>
<rect x="516.0" y="193.1" width="48.3" height="21.3" fill="#E69F00"/>
<rect x="516.0" y="127.2" width="48.3" height="66.0" fill="#CC79A7"/>
<rect x="516.0" y="125.0" width="48.3" height="2.1" fill="#56B4E9"/>
<rect x="516.0" y="122.9" width="48.3" height="2.1" fill="#D55E00"/>
<text class="mut" x="540.1" y="342" font-size="10" text-anchor="middle">202635</text>
<text class="fg" x="540.1" y="117.9" font-size="10" text-anchor="middle">189</text>
<rect x="589.2" y="191.0" width="48.3" height="133.0" fill="#0072B2"/>
<rect x="589.2" y="167.6" width="48.3" height="23.4" fill="#E69F00"/>
<rect x="589.2" y="83.5" width="48.3" height="84.1" fill="#CC79A7"/>
<rect x="589.2" y="81.4" width="48.3" height="2.1" fill="#56B4E9"/>
<rect x="589.2" y="78.2" width="48.3" height="3.2" fill="#D55E00"/>
<rect x="589.2" y="76.1" width="48.3" height="2.1" fill="#F0E442"/>
<text class="mut" x="613.4" y="342" font-size="10" text-anchor="middle">202636</text>
<text class="fg" x="613.4" y="71.1" font-size="10" text-anchor="middle">233</text>
<rect x="672" y="64" width="11" height="11" fill="#0072B2"/>
<text class="fg" x="689" y="74" font-size="11">Built</text>
<rect x="672" y="83" width="11" height="11" fill="#E69F00"/>
<text class="fg" x="689" y="93" font-size="11">Partial</text>
<rect x="672" y="102" width="11" height="11" fill="#009E73"/>
<text class="fg" x="689" y="112" font-size="11">In progress</text>
<rect x="672" y="121" width="11" height="11" fill="#CC79A7"/>
<text class="fg" x="689" y="131" font-size="11">Not started</text>
<rect x="672" y="140" width="11" height="11" fill="#56B4E9"/>
<text class="fg" x="689" y="150" font-size="11">Optional</text>
<rect x="672" y="159" width="11" height="11" fill="#D55E00"/>
<text class="fg" x="689" y="169" font-size="11">Recorded</text>
<rect x="672" y="178" width="11" height="11" fill="#F0E442"/>
<text class="fg" x="689" y="188" font-size="11">Removed</text>
</svg>
