<svg xmlns="http://www.w3.org/2000/svg" width="860" height="380" viewBox="0 0 860 380" role="img" aria-label="Milestones by status">
<style>
  .bg{fill:#ffffff} .fg{fill:#1f2328} .mut{fill:#59636e} .grid{stroke:#d1d9e0}
  @media (prefers-color-scheme: dark){
    .bg{fill:#0d1117} .fg{fill:#e6edf3} .mut{fill:#9198a1} .grid{stroke:#30363d}}
  text{font-family:-apple-system,BlinkMacSystemFont,"Segoe UI",Helvetica,Arial,sans-serif}
</style>
<rect class="bg" width="860" height="380"/>
<text class="fg" x="20" y="26" font-size="16" font-weight="600">Milestones by status</text>
<text class="mut" x="20" y="44" font-size="11">design/roadmap/README.md, one bar per ISO week</text>
<line class="grid" x1="64" y1="324.0" x2="650.0" y2="324.0" stroke-width="1"/>
<text class="mut" x="56" y="327.0" font-size="10" text-anchor="end">0</text>
<line class="grid" x1="64" y1="279.7" x2="650.0" y2="279.7" stroke-width="1"/>
<text class="mut" x="56" y="282.7" font-size="10" text-anchor="end">50</text>
<line class="grid" x1="64" y1="235.3" x2="650.0" y2="235.3" stroke-width="1"/>
<text class="mut" x="56" y="238.3" font-size="10" text-anchor="end">100</text>
<line class="grid" x1="64" y1="191.0" x2="650.0" y2="191.0" stroke-width="1"/>
<text class="mut" x="56" y="194.0" font-size="10" text-anchor="end">150</text>
<line class="grid" x1="64" y1="146.7" x2="650.0" y2="146.7" stroke-width="1"/>
<text class="mut" x="56" y="149.7" font-size="10" text-anchor="end">200</text>
<line class="grid" x1="64" y1="102.3" x2="650.0" y2="102.3" stroke-width="1"/>
<text class="mut" x="56" y="105.3" font-size="10" text-anchor="end">250</text>
<line class="grid" x1="64" y1="58.0" x2="650.0" y2="58.0" stroke-width="1"/>
<text class="mut" x="56" y="61.0" font-size="10" text-anchor="end">300</text>
<text class="mut" x="96.6" y="342" font-size="10" text-anchor="middle">2026W29</text>
<text class="mut" x="161.7" y="342" font-size="10" text-anchor="middle">2026W30</text>
<rect x="205.3" y="300.9" width="43.0" height="23.1" fill="#0072B2"/>
<rect x="205.3" y="293.0" width="43.0" height="8.0" fill="#E69F00"/>
<rect x="205.3" y="292.1" width="43.0" height="0.9" fill="#009E73"/>
<rect x="205.3" y="277.9" width="43.0" height="14.2" fill="#CC79A7"/>
<rect x="205.3" y="276.1" width="43.0" height="1.8" fill="#56B4E9"/>
<rect x="205.3" y="274.3" width="43.0" height="1.8" fill="#D55E00"/>
<text class="mut" x="226.8" y="342" font-size="10" text-anchor="middle">2026W31</text>
<text class="fg" x="226.8" y="269.3" font-size="10" text-anchor="middle">56</text>
<rect x="270.4" y="268.1" width="43.0" height="55.9" fill="#0072B2"/>
<rect x="270.4" y="259.3" width="43.0" height="8.9" fill="#E69F00"/>
<rect x="270.4" y="253.1" width="43.0" height="6.2" fill="#009E73"/>
<rect x="270.4" y="222.0" width="43.0" height="31.0" fill="#CC79A7"/>
<rect x="270.4" y="220.3" width="43.0" height="1.8" fill="#56B4E9"/>
<rect x="270.4" y="218.5" width="43.0" height="1.8" fill="#D55E00"/>
<text class="mut" x="291.9" y="342" font-size="10" text-anchor="middle">2026W32</text>
<text class="fg" x="291.9" y="213.5" font-size="10" text-anchor="middle">119</text>
<rect x="335.5" y="259.3" width="43.0" height="64.7" fill="#0072B2"/>
<rect x="335.5" y="246.9" width="43.0" height="12.4" fill="#E69F00"/>
<rect x="335.5" y="241.5" width="43.0" height="5.3" fill="#009E73"/>
<rect x="335.5" y="213.2" width="43.0" height="28.4" fill="#CC79A7"/>
<rect x="335.5" y="211.4" width="43.0" height="1.8" fill="#56B4E9"/>
<rect x="335.5" y="209.6" width="43.0" height="1.8" fill="#D55E00"/>
<text class="mut" x="357.0" y="342" font-size="10" text-anchor="middle">2026W33</text>
<text class="fg" x="357.0" y="204.6" font-size="10" text-anchor="middle">129</text>
<rect x="400.6" y="238.0" width="43.0" height="86.0" fill="#0072B2"/>
<rect x="400.6" y="222.9" width="43.0" height="15.1" fill="#E69F00"/>
<rect x="400.6" y="184.8" width="43.0" height="38.1" fill="#CC79A7"/>
<rect x="400.6" y="183.0" width="43.0" height="1.8" fill="#56B4E9"/>
<rect x="400.6" y="181.2" width="43.0" height="1.8" fill="#D55E00"/>
<text class="mut" x="422.1" y="342" font-size="10" text-anchor="middle">2026W34</text>
<text class="fg" x="422.1" y="176.2" font-size="10" text-anchor="middle">161</text>
<rect x="465.7" y="232.7" width="43.0" height="91.3" fill="#0072B2"/>
<rect x="465.7" y="214.9" width="43.0" height="17.7" fill="#E69F00"/>
<rect x="465.7" y="160.0" width="43.0" height="55.0" fill="#CC79A7"/>
<rect x="465.7" y="158.2" width="43.0" height="1.8" fill="#56B4E9"/>
<rect x="465.7" y="156.4" width="43.0" height="1.8" fill="#D55E00"/>
<text class="mut" x="487.2" y="342" font-size="10" text-anchor="middle">2026W35</text>
<text class="fg" x="487.2" y="151.4" font-size="10" text-anchor="middle">189</text>
<rect x="530.8" y="191.0" width="43.0" height="133.0" fill="#0072B2"/>
<rect x="530.8" y="165.3" width="43.0" height="25.7" fill="#E69F00"/>
<rect x="530.8" y="97.9" width="43.0" height="67.4" fill="#CC79A7"/>
<rect x="530.8" y="96.1" width="43.0" height="1.8" fill="#56B4E9"/>
<rect x="530.8" y="90.8" width="43.0" height="5.3" fill="#D55E00"/>
<rect x="530.8" y="89.0" width="43.0" height="1.8" fill="#F0E442"/>
<text class="mut" x="552.3" y="342" font-size="10" text-anchor="middle">2026W36</text>
<text class="fg" x="552.3" y="84.0" font-size="10" text-anchor="middle">265</text>
<rect x="596.0" y="175.9" width="43.0" height="148.1" fill="#0072B2"/>
<rect x="596.0" y="149.3" width="43.0" height="26.6" fill="#E69F00"/>
<rect x="596.0" y="75.7" width="43.0" height="73.6" fill="#CC79A7"/>
<rect x="596.0" y="74.0" width="43.0" height="1.8" fill="#56B4E9"/>
<rect x="596.0" y="68.6" width="43.0" height="5.3" fill="#D55E00"/>
<rect x="596.0" y="66.9" width="43.0" height="1.8" fill="#F0E442"/>
<text class="mut" x="617.4" y="342" font-size="10" text-anchor="middle">2026W38</text>
<text class="fg" x="617.4" y="61.9" font-size="10" text-anchor="middle">290</text>
<rect x="672" y="64" width="11" height="11" fill="#0072B2"/>
<text class="fg" x="689" y="74" font-size="11">Built</text>
<rect x="672" y="83" width="11" height="11" fill="#E69F00"/>
<text class="fg" x="689" y="93" font-size="11">Partial</text>
<rect x="672" y="102" width="11" height="11" fill="#009E73"/>
<text class="fg" x="689" y="112" font-size="11">In progress</text>
<rect x="672" y="121" width="11" height="11" fill="#CC79A7"/>
<text class="fg" x="689" y="131" font-size="11">Not started</text>
<rect x="672" y="140" width="11" height="11" fill="#56B4E9"/>
<text class="fg" x="689" y="150" font-size="11">Optional</text>
<rect x="672" y="159" width="11" height="11" fill="#D55E00"/>
<text class="fg" x="689" y="169" font-size="11">Recorded</text>
<rect x="672" y="178" width="11" height="11" fill="#F0E442"/>
<text class="fg" x="689" y="188" font-size="11">Removed</text>
</svg>
