<svg xmlns="http://www.w3.org/2000/svg" width="860" height="380" viewBox="0 0 860 380" role="img" aria-label="Lines touched each week, by the model that signed them, in thousands">
<style>
  .bg{fill:#ffffff} .fg{fill:#1f2328} .mut{fill:#59636e} .grid{stroke:#d1d9e0}
  .seg{stroke:#ffffff;stroke-width:1}
  .val{paint-order:stroke;stroke:#ffffff;stroke-width:3px;stroke-linejoin:round}
  .s0{fill:#2a78d6}  .s1{fill:#eb6834}  .s2{fill:#1baf7a}  .s3{fill:#eda100}  .s4{fill:#e87ba4}  .s5{fill:#008300}  .s6{fill:#4a3aa7}  .s7{fill:#e34948}
  @media (prefers-color-scheme: dark){
    .bg{fill:#0d1117} .fg{fill:#e6edf3} .mut{fill:#9198a1} .grid{stroke:#30363d}
    .seg{stroke:#0d1117} .val{stroke:#0d1117} .s0{fill:#3987e5} .s1{fill:#d95926} .s2{fill:#199e70} .s3{fill:#c98500} .s4{fill:#d55181} .s5{fill:#008300} .s6{fill:#9085e9} .s7{fill:#e66767}}
  text{font-family:-apple-system,BlinkMacSystemFont,"Segoe UI",Helvetica,Arial,sans-serif}
</style>
<rect class="bg" width="860" height="380"/>
<text class="fg" x="20" y="26" font-size="16" font-weight="600">Lines touched each week, by the model that signed them, in thousands</text>
<text class="mut" x="20" y="44" font-size="11">added plus removed, not net. VOLUME, NOT EFFORT: the hardest change of 2026-09-23 was a dozen lines and the largest was a mechanical sweep. Merges carry no line count</text>
<line class="grid" x1="64" y1="324.0" x2="650.0" y2="324.0" stroke-width="1"/>
<text class="mut" x="56" y="327.0" font-size="10" text-anchor="end">0</text>
<line class="grid" x1="64" y1="257.5" x2="650.0" y2="257.5" stroke-width="1"/>
<text class="mut" x="56" y="260.5" font-size="10" text-anchor="end">50</text>
<line class="grid" x1="64" y1="191.0" x2="650.0" y2="191.0" stroke-width="1"/>
<text class="mut" x="56" y="194.0" font-size="10" text-anchor="end">100</text>
<line class="grid" x1="64" y1="124.5" x2="650.0" y2="124.5" stroke-width="1"/>
<text class="mut" x="56" y="127.5" font-size="10" text-anchor="end">150</text>
<line class="grid" x1="64" y1="58.0" x2="650.0" y2="58.0" stroke-width="1"/>
<text class="mut" x="56" y="61.0" font-size="10" text-anchor="end">200</text>
<rect class="seg s4" x="74.0" y="297.5" width="38.7" height="26.5"><title>2026W30, other models: 19.9</title></rect>
<rect class="seg s5" x="74.0" y="297.5" width="38.7" height="0.0"><title>2026W30, unattributed: 0.0</title></rect>
<path class="seg s6" d="M74.0,297.5 V296.2 Q74.0,294.9 75.3,294.9 H111.3 Q112.6,294.9 112.6,296.2 V297.5 Z"><title>2026W30, before the convention: 2.0</title></path>
<text class="mut" x="93.3" y="342" font-size="10" text-anchor="middle">2026W30</text>
<text class="fg val" x="93.3" y="289.9" font-size="10" text-anchor="middle">21.9</text>
<rect class="seg s0" x="132.6" y="204.0" width="38.7" height="120.0"><title>2026W31, Opus 5: 90.2</title></rect>
<rect class="seg s3" x="132.6" y="158.0" width="38.7" height="46.1"><title>2026W31, Fable 5: 34.6</title></rect>
<rect class="seg s4" x="132.6" y="136.4" width="38.7" height="21.5"><title>2026W31, other models: 16.2</title></rect>
<path class="seg s5" d="M132.6,136.4 V126.8 Q132.6,122.8 136.6,122.8 H167.2 Q171.2,122.8 171.2,126.8 V136.4 Z"><title>2026W31, unattributed: 10.2</title></path>
<text class="mut" x="151.9" y="342" font-size="10" text-anchor="middle">2026W31</text>
<text class="fg val" x="151.9" y="117.8" font-size="10" text-anchor="middle">151.2</text>
<rect class="seg s0" x="191.2" y="230.9" width="38.7" height="93.1"><title>2026W32, Opus 5: 70.0</title></rect>
<rect class="seg s3" x="191.2" y="194.1" width="38.7" height="36.9"><title>2026W32, Fable 5: 27.7</title></rect>
<path class="seg s5" d="M191.2,194.1 V174.8 Q191.2,170.8 195.2,170.8 H225.8 Q229.8,170.8 229.8,174.8 V194.1 Z"><title>2026W32, unattributed: 17.5</title></path>
<text class="mut" x="210.5" y="342" font-size="10" text-anchor="middle">2026W32</text>
<text class="fg val" x="210.5" y="165.8" font-size="10" text-anchor="middle">115.2</text>
<rect class="seg s0" x="249.8" y="316.8" width="38.7" height="7.2"><title>2026W33, Opus 5: 5.4</title></rect>
<rect class="seg s3" x="249.8" y="285.9" width="38.7" height="30.9"><title>2026W33, Fable 5: 23.2</title></rect>
<rect class="seg s4" x="249.8" y="283.9" width="38.7" height="2.1"><title>2026W33, other models: 1.6</title></rect>
<path class="seg s5" d="M249.8,283.9 V274.8 Q249.8,270.8 253.8,270.8 H284.4 Q288.4,270.8 288.4,274.8 V283.9 Z"><title>2026W33, unattributed: 9.8</title></path>
<text class="mut" x="269.1" y="342" font-size="10" text-anchor="middle">2026W33</text>
<text class="fg val" x="269.1" y="265.8" font-size="10" text-anchor="middle">40.0</text>
<rect class="seg s0" x="308.4" y="300.1" width="38.7" height="23.9"><title>2026W34, Opus 5: 18.0</title></rect>
<rect class="seg s2" x="308.4" y="291.1" width="38.7" height="9.0"><title>2026W34, Sonnet 5: 6.8</title></rect>
<path class="seg s5" d="M308.4,291.1 V211.3 Q308.4,207.3 312.4,207.3 H343.0 Q347.0,207.3 347.0,211.3 V291.1 Z"><title>2026W34, unattributed: 63.0</title></path>
<text class="mut" x="327.7" y="342" font-size="10" text-anchor="middle">2026W34</text>
<text class="fg val" x="327.7" y="202.3" font-size="10" text-anchor="middle">87.7</text>
<rect class="seg s0" x="367.0" y="318.9" width="38.7" height="5.1"><title>2026W35, Opus 5: 3.8</title></rect>
<rect class="seg s2" x="367.0" y="261.2" width="38.7" height="57.7"><title>2026W35, Sonnet 5: 43.4</title></rect>
<path class="seg s5" d="M367.0,261.2 V234.7 Q367.0,230.7 371.0,230.7 H401.6 Q405.6,230.7 405.6,234.7 V261.2 Z"><title>2026W35, unattributed: 22.9</title></path>
<text class="mut" x="386.3" y="342" font-size="10" text-anchor="middle">2026W35</text>
<text class="fg val" x="386.3" y="225.7" font-size="10" text-anchor="middle">70.1</text>
<rect class="seg s0" x="425.6" y="229.5" width="38.7" height="94.5"><title>2026W36, Opus 5: 71.0</title></rect>
<path class="seg s5" d="M425.6,229.5 V201.4 Q425.6,197.4 429.6,197.4 H460.2 Q464.2,197.4 464.2,201.4 V229.5 Z"><title>2026W36, unattributed: 24.1</title></path>
<text class="mut" x="444.9" y="342" font-size="10" text-anchor="middle">2026W36</text>
<text class="fg val" x="444.9" y="192.4" font-size="10" text-anchor="middle">95.2</text>
<rect class="seg s0" x="484.2" y="277.7" width="38.7" height="46.3"><title>2026W37, Opus 5: 34.8</title></rect>
<path class="seg s5" d="M484.2,277.7 V277.5 Q484.2,277.2 484.4,277.2 H522.6 Q522.8,277.2 522.8,277.5 V277.7 Z"><title>2026W37, unattributed: 0.3</title></path>
<text class="mut" x="503.5" y="342" font-size="10" text-anchor="middle">2026W37</text>
<text class="fg val" x="503.5" y="272.2" font-size="10" text-anchor="middle">35.2</text>
<rect class="seg s0" x="542.8" y="120.5" width="38.7" height="203.5"><title>2026W38, Opus 5: 153.0</title></rect>
<rect class="seg s4" x="542.8" y="113.8" width="38.7" height="6.7"><title>2026W38, other models: 5.0</title></rect>
<path class="seg s5" d="M542.8,113.8 V112.9 Q542.8,112.0 543.7,112.0 H580.5 Q581.4,112.0 581.4,112.9 V113.8 Z"><title>2026W38, unattributed: 1.4</title></path>
<text class="mut" x="562.1" y="342" font-size="10" text-anchor="middle">2026W38</text>
<text class="fg val" x="562.1" y="107.0" font-size="10" text-anchor="middle">159.4</text>
<rect class="seg s0" x="601.4" y="198.3" width="38.7" height="125.7"><title>2026W39, Opus 5: 94.5</title></rect>
<rect class="seg s1" x="601.4" y="126.8" width="38.7" height="71.6"><title>2026W39, Opus 5.5: 53.8</title></rect>
<rect class="seg s2" x="601.4" y="118.9" width="38.7" height="7.8"><title>2026W39, Sonnet 5: 5.9</title></rect>
<rect class="seg s4" x="601.4" y="117.7" width="38.7" height="1.3"><title>2026W39, other models: 1.0</title></rect>
<path class="seg s5" d="M601.4,117.7 V115.4 Q601.4,113.2 603.6,113.2 H637.8 Q640.0,113.2 640.0,115.4 V117.7 Z"><title>2026W39, unattributed: 3.3</title></path>
<text class="mut" x="620.7" y="342" font-size="10" text-anchor="middle">2026W39</text>
<text class="fg val" x="620.7" y="108.2" font-size="10" text-anchor="middle">158.5</text>
<rect class="s0" x="672" y="64" width="11" height="11" rx="2"/>
<text class="fg" y="74" font-size="11"><tspan x="689" dy="0">Opus 5</tspan></text>
<rect class="s1" x="672" y="83" width="11" height="11" rx="2"/>
<text class="fg" y="93" font-size="11"><tspan x="689" dy="0">Opus 5.5</tspan></text>
<rect class="s2" x="672" y="102" width="11" height="11" rx="2"/>
<text class="fg" y="112" font-size="11"><tspan x="689" dy="0">Sonnet 5</tspan></text>
<rect class="s3" x="672" y="121" width="11" height="11" rx="2"/>
<text class="fg" y="131" font-size="11"><tspan x="689" dy="0">Fable 5</tspan></text>
<rect class="s4" x="672" y="140" width="11" height="11" rx="2"/>
<text class="fg" y="150" font-size="11"><tspan x="689" dy="0">other models</tspan></text>
<rect class="s5" x="672" y="159" width="11" height="11" rx="2"/>
<text class="fg" y="169" font-size="11"><tspan x="689" dy="0">unattributed</tspan></text>
<rect class="s6" x="672" y="178" width="11" height="11" rx="2"/>
<text class="fg" y="188" font-size="11"><tspan x="689" dy="0">before the convention</tspan></text>
</svg>
