<svg xmlns="http://www.w3.org/2000/svg" width="860" height="380" viewBox="0 0 860 380" role="img" aria-label="Names by what the tree records about them">
<style>
  .bg{fill:#ffffff} .fg{fill:#1f2328} .mut{fill:#59636e} .grid{stroke:#d1d9e0}
  .seg{stroke:#ffffff;stroke-width:1}
  .val{paint-order:stroke;stroke:#ffffff;stroke-width:3px;stroke-linejoin:round}
  .s0{fill:#2a78d6}  .s1{fill:#eb6834}  .s2{fill:#1baf7a}  .s3{fill:#eda100}  .s4{fill:#e87ba4}  .s5{fill:#008300}  .s6{fill:#4a3aa7}  .s7{fill:#e34948}
  @media (prefers-color-scheme: dark){
    .bg{fill:#0d1117} .fg{fill:#e6edf3} .mut{fill:#9198a1} .grid{stroke:#30363d}
    .seg{stroke:#0d1117} .val{stroke:#0d1117} .s0{fill:#3987e5} .s1{fill:#d95926} .s2{fill:#199e70} .s3{fill:#c98500} .s4{fill:#d55181} .s5{fill:#008300} .s6{fill:#9085e9} .s7{fill:#e66767}}
  text{font-family:-apple-system,BlinkMacSystemFont,"Segoe UI",Helvetica,Arial,sans-serif}
</style>
<rect class="bg" width="860" height="380"/>
<text class="fg" x="20" y="26" font-size="16" font-weight="600">Names by what the tree records about them</text>
<text class="mut" x="20" y="44" font-size="11">crates, programs, script/ entry points and Cargo packages; provenance lives in the header</text>
<line class="grid" x1="64" y1="324.0" x2="650.0" y2="324.0" stroke-width="1"/>
<text class="mut" x="56" y="327.0" font-size="10" text-anchor="end">0</text>
<line class="grid" x1="64" y1="270.8" x2="650.0" y2="270.8" stroke-width="1"/>
<text class="mut" x="56" y="273.8" font-size="10" text-anchor="end">50</text>
<line class="grid" x1="64" y1="217.6" x2="650.0" y2="217.6" stroke-width="1"/>
<text class="mut" x="56" y="220.6" font-size="10" text-anchor="end">100</text>
<line class="grid" x1="64" y1="164.4" x2="650.0" y2="164.4" stroke-width="1"/>
<text class="mut" x="56" y="167.4" font-size="10" text-anchor="end">150</text>
<line class="grid" x1="64" y1="111.2" x2="650.0" y2="111.2" stroke-width="1"/>
<text class="mut" x="56" y="114.2" font-size="10" text-anchor="end">200</text>
<line class="grid" x1="64" y1="58.0" x2="650.0" y2="58.0" stroke-width="1"/>
<text class="mut" x="56" y="61.0" font-size="10" text-anchor="end">250</text>
<path class="seg s4" d="M74.0,324.0 V285.4 Q74.0,281.4 78.0,281.4 H108.6 Q112.6,281.4 112.6,285.4 V324.0 Z"><title>2026W30, No provenance block: 40</title></path>
<text class="mut" x="93.3" y="342" font-size="10" text-anchor="middle">2026W30</text>
<text class="fg val" x="93.3" y="276.4" font-size="10" text-anchor="middle">40</text>
<path class="seg s4" d="M132.6,324.0 V201.4 Q132.6,197.4 136.6,197.4 H167.2 Q171.2,197.4 171.2,201.4 V324.0 Z"><title>2026W31, No provenance block: 119</title></path>
<text class="mut" x="151.9" y="342" font-size="10" text-anchor="middle">2026W31</text>
<text class="fg val" x="151.9" y="192.4" font-size="10" text-anchor="middle">119</text>
<rect class="seg s0" x="191.2" y="247.4" width="38.7" height="76.6"><title>2026W32, Ratified: 72</title></rect>
<rect class="seg s1" x="191.2" y="236.8" width="38.7" height="10.6"><title>2026W32, Recorded: 10</title></rect>
<rect class="seg s3" x="191.2" y="187.8" width="38.7" height="48.9"><title>2026W32, Unrecorded: 46</title></rect>
<path class="seg s4" d="M191.2,187.8 V184.1 Q191.2,180.4 194.9,180.4 H226.1 Q229.8,180.4 229.8,184.1 V187.8 Z"><title>2026W32, No provenance block: 7</title></path>
<text class="mut" x="210.5" y="342" font-size="10" text-anchor="middle">2026W32</text>
<text class="fg val" x="210.5" y="175.4" font-size="10" text-anchor="middle">135</text>
<rect class="seg s0" x="249.8" y="245.3" width="38.7" height="78.7"><title>2026W33, Ratified: 74</title></rect>
<rect class="seg s1" x="249.8" y="233.6" width="38.7" height="11.7"><title>2026W33, Recorded: 11</title></rect>
<rect class="seg s2" x="249.8" y="232.5" width="38.7" height="1.1"><title>2026W33, Provisional: 1</title></rect>
<rect class="seg s3" x="249.8" y="169.7" width="38.7" height="62.8"><title>2026W33, Unrecorded: 59</title></rect>
<path class="seg s4" d="M249.8,169.7 V166.0 Q249.8,162.3 253.5,162.3 H284.7 Q288.4,162.3 288.4,166.0 V169.7 Z"><title>2026W33, No provenance block: 7</title></path>
<text class="mut" x="269.1" y="342" font-size="10" text-anchor="middle">2026W33</text>
<text class="fg val" x="269.1" y="157.3" font-size="10" text-anchor="middle">152</text>
<rect class="seg s0" x="308.4" y="217.6" width="38.7" height="106.4"><title>2026W34, Ratified: 100</title></rect>
<rect class="seg s1" x="308.4" y="209.1" width="38.7" height="8.5"><title>2026W34, Recorded: 8</title></rect>
<rect class="seg s2" x="308.4" y="199.5" width="38.7" height="9.6"><title>2026W34, Provisional: 9</title></rect>
<path class="seg s3" d="M308.4,199.5 V141.8 Q308.4,137.8 312.4,137.8 H343.0 Q347.0,137.8 347.0,141.8 V199.5 Z"><title>2026W34, Unrecorded: 58</title></path>
<text class="mut" x="327.7" y="342" font-size="10" text-anchor="middle">2026W34</text>
<text class="fg val" x="327.7" y="132.8" font-size="10" text-anchor="middle">175</text>
<rect class="seg s0" x="367.0" y="216.5" width="38.7" height="107.5"><title>2026W35, Ratified: 101</title></rect>
<rect class="seg s1" x="367.0" y="207.0" width="38.7" height="9.6"><title>2026W35, Recorded: 9</title></rect>
<rect class="seg s2" x="367.0" y="187.8" width="38.7" height="19.2"><title>2026W35, Provisional: 18</title></rect>
<path class="seg s3" d="M367.0,187.8 V128.0 Q367.0,124.0 371.0,124.0 H401.6 Q405.6,124.0 405.6,128.0 V187.8 Z"><title>2026W35, Unrecorded: 60</title></path>
<text class="mut" x="386.3" y="342" font-size="10" text-anchor="middle">2026W35</text>
<text class="fg val" x="386.3" y="119.0" font-size="10" text-anchor="middle">188</text>
<rect class="seg s0" x="425.6" y="213.3" width="38.7" height="110.7"><title>2026W36, Ratified: 104</title></rect>
<rect class="seg s1" x="425.6" y="174.0" width="38.7" height="39.4"><title>2026W36, Recorded: 37</title></rect>
<path class="seg s2" d="M425.6,174.0 V110.9 Q425.6,106.9 429.6,106.9 H460.2 Q464.2,106.9 464.2,110.9 V174.0 Z"><title>2026W36, Provisional: 63</title></path>
<text class="mut" x="444.9" y="342" font-size="10" text-anchor="middle">2026W36</text>
<text class="fg val" x="444.9" y="101.9" font-size="10" text-anchor="middle">204</text>
<rect class="seg s0" x="484.2" y="189.9" width="38.7" height="134.1"><title>2026W37, Ratified: 126</title></rect>
<rect class="seg s1" x="484.2" y="148.4" width="38.7" height="41.5"><title>2026W37, Recorded: 39</title></rect>
<path class="seg s2" d="M484.2,148.4 V108.8 Q484.2,104.8 488.2,104.8 H518.8 Q522.8,104.8 522.8,108.8 V148.4 Z"><title>2026W37, Provisional: 41</title></path>
<text class="mut" x="503.5" y="342" font-size="10" text-anchor="middle">2026W37</text>
<text class="fg val" x="503.5" y="99.8" font-size="10" text-anchor="middle">206</text>
<rect class="seg s0" x="542.8" y="161.2" width="38.7" height="162.8"><title>2026W38, Ratified: 153</title></rect>
<rect class="seg s1" x="542.8" y="132.5" width="38.7" height="28.7"><title>2026W38, Recorded: 27</title></rect>
<rect class="seg s2" x="542.8" y="78.2" width="38.7" height="54.3"><title>2026W38, Provisional: 51</title></rect>
<path class="seg s3" d="M542.8,78.2 V77.7 Q542.8,77.2 543.3,77.2 H580.9 Q581.4,77.2 581.4,77.7 V78.2 Z"><title>2026W38, Unrecorded: 1</title></path>
<text class="mut" x="562.1" y="342" font-size="10" text-anchor="middle">2026W38</text>
<text class="fg val" x="562.1" y="72.2" font-size="10" text-anchor="middle">232</text>
<rect class="seg s0" x="601.4" y="158.0" width="38.7" height="166.0"><title>2026W39, Ratified: 156</title></rect>
<rect class="seg s1" x="601.4" y="129.3" width="38.7" height="28.7"><title>2026W39, Recorded: 27</title></rect>
<rect class="seg s2" x="601.4" y="64.4" width="38.7" height="64.9"><title>2026W39, Provisional: 61</title></rect>
<path class="seg s3" d="M601.4,64.4 V63.9 Q601.4,63.3 601.9,63.3 H639.5 Q640.0,63.3 640.0,63.9 V64.4 Z"><title>2026W39, Unrecorded: 1</title></path>
<text class="mut" x="620.7" y="342" font-size="10" text-anchor="middle">2026W39</text>
<text class="fg val" x="620.7" y="58.3" font-size="10" text-anchor="middle">245</text>
<rect class="s0" x="672" y="64" width="11" height="11" rx="2"/>
<text class="fg" y="74" font-size="11"><tspan x="689" dy="0">Ratified</tspan></text>
<rect class="s1" x="672" y="83" width="11" height="11" rx="2"/>
<text class="fg" y="93" font-size="11"><tspan x="689" dy="0">Recorded</tspan></text>
<rect class="s2" x="672" y="102" width="11" height="11" rx="2"/>
<text class="fg" y="112" font-size="11"><tspan x="689" dy="0">Provisional</tspan></text>
<rect class="s3" x="672" y="121" width="11" height="11" rx="2"/>
<text class="fg" y="131" font-size="11"><tspan x="689" dy="0">Unrecorded</tspan></text>
<rect class="s4" x="672" y="140" width="11" height="11" rx="2"/>
<text class="fg" y="150" font-size="11"><tspan x="689" dy="0">No provenance block</tspan></text>
</svg>
