<svg xmlns="http://www.w3.org/2000/svg" width="860" height="380" viewBox="0 0 860 380" role="img" aria-label="The same unsafe blocks, by trust boundary">
<style>
  .bg{fill:#ffffff} .fg{fill:#1f2328} .mut{fill:#59636e} .grid{stroke:#d1d9e0}
  .seg{stroke:#ffffff;stroke-width:1}
  .val{paint-order:stroke;stroke:#ffffff;stroke-width:3px;stroke-linejoin:round}
  .s0{fill:#2a78d6}  .s1{fill:#eb6834}  .s2{fill:#1baf7a}  .s3{fill:#eda100}  .s4{fill:#e87ba4}  .s5{fill:#008300}  .s6{fill:#4a3aa7}  .s7{fill:#e34948}
  @media (prefers-color-scheme: dark){
    .bg{fill:#0d1117} .fg{fill:#e6edf3} .mut{fill:#9198a1} .grid{stroke:#30363d}
    .seg{stroke:#0d1117} .val{stroke:#0d1117} .s0{fill:#3987e5} .s1{fill:#d95926} .s2{fill:#199e70} .s3{fill:#c98500} .s4{fill:#d55181} .s5{fill:#008300} .s6{fill:#9085e9} .s7{fill:#e66767}}
  text{font-family:-apple-system,BlinkMacSystemFont,"Segoe UI",Helvetica,Arial,sans-serif}
</style>
<rect class="bg" width="860" height="380"/>
<text class="fg" x="20" y="26" font-size="16" font-weight="600">The same unsafe blocks, by trust boundary</text>
<text class="mut" x="20" y="44" font-size="11">kernel: no confinement over it. userspace: confined like any other program. see notes/project-metrics.md for shared/boot chain/unclassified and why this is not the chart above</text>
<line class="grid" x1="64" y1="324.0" x2="650.0" y2="324.0" stroke-width="1"/>
<text class="mut" x="56" y="327.0" font-size="10" text-anchor="end">0</text>
<line class="grid" x1="64" y1="279.7" x2="650.0" y2="279.7" stroke-width="1"/>
<text class="mut" x="56" y="282.7" font-size="10" text-anchor="end">200</text>
<line class="grid" x1="64" y1="235.3" x2="650.0" y2="235.3" stroke-width="1"/>
<text class="mut" x="56" y="238.3" font-size="10" text-anchor="end">400</text>
<line class="grid" x1="64" y1="191.0" x2="650.0" y2="191.0" stroke-width="1"/>
<text class="mut" x="56" y="194.0" font-size="10" text-anchor="end">600</text>
<line class="grid" x1="64" y1="146.7" x2="650.0" y2="146.7" stroke-width="1"/>
<text class="mut" x="56" y="149.7" font-size="10" text-anchor="end">800</text>
<line class="grid" x1="64" y1="102.3" x2="650.0" y2="102.3" stroke-width="1"/>
<text class="mut" x="56" y="105.3" font-size="10" text-anchor="end">1000</text>
<line class="grid" x1="64" y1="58.0" x2="650.0" y2="58.0" stroke-width="1"/>
<text class="mut" x="56" y="61.0" font-size="10" text-anchor="end">1200</text>
<text class="mut" x="93.3" y="342" font-size="10" text-anchor="middle">2026W30</text>
<text class="mut" x="151.9" y="342" font-size="10" text-anchor="middle">2026W31</text>
<text class="mut" x="210.5" y="342" font-size="10" text-anchor="middle">2026W32</text>
<text class="mut" x="269.1" y="342" font-size="10" text-anchor="middle">2026W33</text>
<text class="mut" x="327.7" y="342" font-size="10" text-anchor="middle">2026W34</text>
<text class="mut" x="386.3" y="342" font-size="10" text-anchor="middle">2026W35</text>
<text class="mut" x="444.9" y="342" font-size="10" text-anchor="middle">2026W36</text>
<text class="mut" x="503.5" y="342" font-size="10" text-anchor="middle">2026W37</text>
<text class="mut" x="562.1" y="342" font-size="10" text-anchor="middle">2026W38</text>
<rect class="seg s0" x="601.4" y="170.2" width="38.7" height="153.8"><title>2026W39, kernel (trusted base): 694</title></rect>
<rect class="seg s1" x="601.4" y="85.5" width="38.7" height="84.7"><title>2026W39, userspace (confined): 382</title></rect>
<rect class="seg s2" x="601.4" y="81.3" width="38.7" height="4.2"><title>2026W39, shared (both, unresolved): 19</title></rect>
<path class="seg s3" d="M601.4,81.3 V77.1 Q601.4,73.1 605.4,73.1 H636.0 Q640.0,73.1 640.0,77.1 V81.3 Z"><title>2026W39, boot chain (uefi_loader): 37</title></path>
<text class="mut" x="620.7" y="342" font-size="10" text-anchor="middle">2026W39</text>
<text class="fg val" x="620.7" y="68.1" font-size="10" text-anchor="middle">1132</text>
<rect class="s0" x="672" y="64" width="11" height="11" rx="2"/>
<text class="fg" y="74" font-size="11"><tspan x="689" dy="0">kernel (trusted base)</tspan></text>
<rect class="s1" x="672" y="83" width="11" height="11" rx="2"/>
<text class="fg" y="93" font-size="11"><tspan x="689" dy="0">userspace (confined)</tspan></text>
<rect class="s2" x="672" y="102" width="11" height="11" rx="2"/>
<text class="fg" y="112" font-size="11"><tspan x="689" dy="0">shared (both,</tspan><tspan x="689" dy="13">unresolved)</tspan></text>
<rect class="s3" x="672" y="134" width="11" height="11" rx="2"/>
<text class="fg" y="144" font-size="11"><tspan x="689" dy="0">boot chain</tspan><tspan x="689" dy="13">(uefi_loader)</tspan></text>
</svg>
